<svg width="788" height="53" viewBox="0 0 788 53" fill="none" xmlns="http://www.w3.org/2000/svg">
<path d="M0.101807 30.4531L130.077 25.2902L195.93 27.0632C245.016 28.3848 289.371 2.1294 338.455 0.727091V0.727091C369.905 -0.171459 389.35 8.92044 397.729 14.044C401.052 16.0759 404.355 18.1996 407.853 19.9128C412.731 22.3021 418.178 25.0338 419.078 24.7383" stroke="url(#paint0_linear_307_52)" stroke-opacity="0.33"/>
<path d="M418.414 24.6795C418.964 23.866 419.622 23.0733 420.386 22.3014C421.15 21.5722 421.766 21.0357 422.234 20.692L422.935 20.1764C424.777 21.703 426.321 23.1885 427.566 24.6328C425.785 26.7753 424.257 28.3191 422.981 29.2643C422.211 28.7562 421.439 28.1201 420.668 27.356C419.896 26.592 419.316 25.9549 418.93 25.4449L418.414 24.6795Z" fill="#816659" fill-opacity="0.33"/>
<path d="M787.072 22.4385L657.096 27.6014L591.243 25.8284C542.158 24.5069 497.802 50.7622 448.719 52.1645V52.1645C417.268 53.0631 397.824 43.9712 389.444 38.8476C386.121 36.8157 382.819 34.692 379.321 32.9788C374.442 30.5895 368.995 27.8578 368.095 28.1533" stroke="url(#paint1_linear_307_52)" stroke-opacity="0.33"/>
<path d="M368.759 28.2121C368.209 29.0256 367.552 29.8183 366.788 30.5902C366.023 31.3194 365.407 31.8559 364.94 32.1996L364.238 32.7152C362.396 31.1886 360.852 29.7031 359.608 28.2588C361.389 26.1163 362.917 24.5725 364.192 23.6273C364.963 24.1354 365.734 24.7715 366.506 25.5356C367.278 26.2996 367.857 26.9367 368.244 27.4467L368.759 28.2121Z" fill="#816659" fill-opacity="0.33"/>
<defs>
<linearGradient id="paint0_linear_307_52" x1="414.096" y1="28.3417" x2="-10.4491" y2="20.5068" gradientUnits="userSpaceOnUse">
<stop offset="0.676902" stop-color="#816659"/>
<stop offset="1" stop-color="#816659" stop-opacity="0"/>
</linearGradient>
<linearGradient id="paint1_linear_307_52" x1="373.077" y1="24.5499" x2="797.622" y2="32.3848" gradientUnits="userSpaceOnUse">
<stop offset="0.676902" stop-color="#816659"/>
<stop offset="1" stop-color="#816659" stop-opacity="0"/>
</linearGradient>
</defs>
</svg>
