<svg width="52" height="52" viewBox="0 0 52 52" fill="none" xmlns="http://www.w3.org/2000/svg">
<path fill-rule="evenodd" clip-rule="evenodd" d="M0.391113 26C0.391113 19.2081 3.08919 12.6944 7.8918 7.8918C12.6944 3.08919 19.2081 0.391113 26 0.391113C32.792 0.391113 39.3057 3.08919 44.1083 7.8918C48.9109 12.6944 51.609 19.2081 51.609 26C51.609 32.792 48.9109 39.3057 44.1083 44.1083C39.3057 48.9109 32.792 51.609 26 51.609C19.2081 51.609 12.6944 48.9109 7.8918 44.1083C3.08919 39.3057 0.391113 32.792 0.391113 26ZM26 4.06445C21.7483 4.06459 17.5883 5.30036 14.026 7.62141C10.4637 9.94246 7.65272 13.2487 5.93502 17.1381C4.21732 21.0274 3.66694 25.332 4.35083 29.5284C5.03472 33.7248 6.9234 37.6319 9.78711 40.7746C11.5257 38.0515 13.9226 35.8105 16.7563 34.2588C19.5901 32.7071 22.7693 31.8947 26 31.8967C29.2309 31.8943 32.4102 32.7066 35.244 34.2583C38.0778 35.8101 40.4747 38.0512 42.213 40.7746C45.0767 37.6319 46.9654 33.7248 47.6493 29.5284C48.3332 25.332 47.7828 21.0274 46.0651 17.1381C44.3474 13.2487 41.5364 9.94246 37.9741 7.62141C34.4118 5.30036 30.2518 4.06459 26 4.06445ZM39.4638 43.3189C38.0955 40.9606 36.1314 39.0035 33.7684 37.6435C31.4054 36.2835 28.7265 35.5685 26 35.5701C23.2736 35.5685 20.5947 36.2835 18.2317 37.6435C15.8687 39.0035 13.9046 40.9606 12.5363 43.3189C16.3827 46.3181 21.1225 47.9434 26 47.9357C31.0731 47.9357 35.7441 46.2111 39.4638 43.3189ZM16.9134 22.1527C16.9134 19.7428 17.8707 17.4316 19.5748 15.7275C21.2789 14.0234 23.5901 13.066 26 13.066C28.41 13.066 30.7212 14.0234 32.4253 15.7275C34.1294 17.4316 35.0867 19.7428 35.0867 22.1527C35.0867 24.5627 34.1294 26.8739 32.4253 28.578C30.7212 30.282 28.41 31.2394 26 31.2394C23.5901 31.2394 21.2789 30.282 19.5748 28.578C17.8707 26.8739 16.9134 24.5627 16.9134 22.1527ZM26 16.7394C25.2892 16.7394 24.5852 16.8794 23.9285 17.1514C23.2717 17.4235 22.6749 17.8222 22.1722 18.3249C21.6696 18.8276 21.2708 19.4243 20.9988 20.0811C20.7267 20.7379 20.5867 21.4418 20.5867 22.1527C20.5867 22.8636 20.7267 23.5675 20.9988 24.2243C21.2708 24.8811 21.6696 25.4778 22.1722 25.9805C22.6749 26.4832 23.2717 26.8819 23.9285 27.154C24.5852 27.426 25.2892 27.5661 26 27.5661C27.4358 27.566 28.8127 26.9957 29.8279 25.9805C30.8431 24.9653 31.4134 23.5884 31.4134 22.1527C31.4134 20.717 30.8431 19.3401 29.8279 18.3249C28.8127 17.3097 27.4358 16.7394 26 16.7394Z" fill="#816659" fill-opacity="0.5"/>
</svg>
